<?xml version="1.0" encoding="UTF-8" standalone="no"?>
<!-- Created with Inkscape (http://www.inkscape.org/) -->

<svg
   width="95.943184mm"
   height="70.156853mm"
   viewBox="0 0 95.943184 70.156853"
   version="1.1"
   id="svg5"
   xmlns="http://www.w3.org/2000/svg"
   xmlns:svg="http://www.w3.org/2000/svg">
  <defs
     id="defs2" />
  <g
     id="layer1"
     transform="translate(-43.827274,-96.082682)">
    <g
       id="g8972"
       transform="translate(145.08997,-9.9748336)">
      <path
         style="fill:#6f4314;fill-opacity:1;stroke:#410000;stroke-width:0.2;stroke-dasharray:none;stroke-opacity:1"
         d="m -101.0454,121.01606 20.251907,8.22467 14.50097,-9.22217 -20.251906,-8.22468 z"
         id="path8683" />
      <path
         id="rect790"
         style="fill:#8b4b05;stroke:#410000;stroke-width:0.207781;stroke-dasharray:none;stroke-opacity:1"
         transform="matrix(0.92650903,0.37627252,0,1,0,0)"
         d="m -109.06035,162.05247 h 21.858295 v 22.07367 h -21.858295 z" />
      <path
         style="fill:#6f4314;fill-opacity:1;stroke:#410000;stroke-width:0.2;stroke-dasharray:none;stroke-opacity:1"
         d="m -80.793492,129.24074 20.251904,8.22467 14.50097,-9.22217 -20.251906,-8.22468 z"
         id="path8681" />
      <path
         id="rect7762"
         style="fill:#8b4b05;stroke:#410000;stroke-width:0.207781;stroke-dasharray:none;stroke-opacity:1"
         transform="matrix(0.92650903,0.37627252,0,1,0,0)"
         d="m -87.202057,162.05247 h 21.858294 v 22.07367 h -21.858294 z" />
      <path
         style="fill:#6f4314;fill-opacity:1;stroke:#410000;stroke-width:0.2;stroke-dasharray:none;stroke-opacity:1"
         d="m -60.541587,115.39175 20.251904,8.22467 14.50097,-9.22217 -20.251906,-8.22468 z"
         id="path8677" />
      <path
         id="rect7768"
         style="fill:#8b4b05;stroke:#410000;stroke-width:0.207781;stroke-dasharray:none;stroke-opacity:1"
         transform="matrix(0.92650903,0.37627252,0,1,0,0)"
         d="m -65.343765,139.97881 h 21.858293 v 22.07366 h -21.858293 z" />
      <path
         id="rect7764"
         style="fill:#8b4b05;stroke:#410000;stroke-width:0.207781;stroke-dasharray:none;stroke-opacity:1"
         transform="matrix(0.92650903,0.37627252,0,1,0,0)"
         d="m -65.343765,162.05247 h 21.858293 v 22.07367 h -21.858293 z" />
      <path
         id="rect8500"
         style="fill:#9f5c13;fill-opacity:1;stroke:#410000;stroke-width:0.217524;stroke-dasharray:none;stroke-opacity:1"
         transform="matrix(0.84536856,-0.53418349,0,1,0,0)"
         d="m -47.659313,98.098511 h 17.153431 v 22.191839 h -17.153431 z" />
      <path
         style="fill:#6f4314;fill-opacity:1;stroke:#410000;stroke-width:0.2;stroke-dasharray:none;stroke-opacity:1"
         d="m -40.289682,145.80827 20.251904,8.22467 14.5009701,-9.22217 -20.2519061,-8.22468 z"
         id="path8679" />
      <path
         id="rect7766"
         style="fill:#8b4b05;stroke:#410000;stroke-width:0.207781;stroke-dasharray:none;stroke-opacity:1"
         transform="matrix(0.92650903,0.37627252,0,1,0,0)"
         d="m -43.485474,162.05247 h 21.858294 v 22.07367 h -21.858294 z" />
      <path
         id="rect8496"
         style="fill:#9f5c13;fill-opacity:1;stroke:#410000;stroke-width:0.217524;stroke-dasharray:none;stroke-opacity:1"
         transform="matrix(0.84536856,-0.53418349,0,1,0,0)"
         d="m -23.703009,141.19391 h 17.1534313 v 22.19184 H -23.703009 Z" />
    </g>
  </g>
</svg>
